<?xml version="1.0" standalone="no"?>
<!DOCTYPE svg PUBLIC "-//W3C//DTD SVG 20010904//EN"
 "http://www.w3.org/TR/2001/REC-SVG-20010904/DTD/svg10.dtd">
<svg version="1.0" xmlns="http://www.w3.org/2000/svg"
 width="200.000000pt" height="200.000000pt" viewBox="0 0 200.000000 200.000000"
 preserveAspectRatio="xMidYMid meet">

<g transform="translate(0.000000,200.000000) scale(0.100000,-0.100000)"
fill="#ccc" stroke="none">
<path d="M1260 1288 c0 -417 3 -525 15 -576 53 -225 264 -409 485 -423 55 -4
55 -4 58 26 l3 31 -75 13 c-185 31 -356 182 -401 356 -12 46 -15 118 -15 322
l0 263 115 0 115 0 0 35 0 35 -115 0 -115 0 -2 213 -3 212 -32 3 -33 3 0 -513z"/>
<path d="M470 1738 c-36 -13 -88 -38 -116 -56 -69 -44 -166 -146 -198 -210
-53 -105 -56 -135 -56 -674 l0 -498 35 0 35 0 0 485 c0 514 3 548 48 645 36
74 150 189 224 223 174 82 375 47 518 -89 131 -125 175 -324 110 -496 -47
-127 -165 -240 -288 -278 -79 -24 -197 -26 -271 -4 -55 16 -64 13 -75 -22 -7
-24 13 -36 94 -54 270 -59 572 136 629 408 43 209 -40 424 -214 547 -99 71
-151 87 -290 92 -105 3 -128 1 -185 -19z"/>
</g>
</svg>
